<svg xmlns="http://www.w3.org/2000/svg" width="32" height="32" viewBox="0 0 32 32" fill="none">
  <rect width="32" height="32" rx="6" fill="#3B22FF"/>
  <path d="M 14.5 4 L 14.5 8.7 L 16.6 8.7 L 16.7 8.8 L 17.1 8.8 L 17.2 8.9 L 17.4 8.9 L 17.5 9 L 17.7 9 L 17.8 9.1 L 17.9 9.1 L 18 9.2 L 18.2 9.2 L 18.3 9.3 L 18.4 9.3 L 18.5 9.4 L 18.6 9.4 L 18.7 9.5 L 18.8 9.5 L 18.9 9.6 L 19 9.6 L 19.2 9.8 L 19.3 9.8 L 19.6 10.1 L 19.7 10.1 L 19.9 10.3 L 20 10.3 L 23.8 6.5 L 23.8 6.4 L 23.5 6.1 L 23.4 6.1 L 22.8 5.5 L 22.7 5.5 L 22.4 5.2 L 22.3 5.2 L 22.1 5 L 22 5 L 21.8 4.8 L 21.7 4.8 L 21.6 4.7 L 21.5 4.7 L 21.3 4.5 L 21.2 4.5 L 21.1 4.4 L 21 4.4 L 20.9 4.3 L 20.8 4.3 L 20.7 4.2 L 20.6 4.2 L 20.5 4.1 L 20.4 4.1 L 20.3 4 L 20.2 4 L 20.1 3.9 L 19.9 3.9 L 19.8 3.8 L 19.6 3.8 L 19.5 3.7 L 19.3 3.7 L 19.2 3.6 L 18.7 3.6 L 18.6 3.5 L 17.5 3.5 L 17.4 3.4 Z" fill="#FFFFFF"/>
  <path d="M 13.8 8.9 L 13.7 9 L 13.4 9 L 13.3 9.1 L 13.1 9.1 L 13 9.2 L 12.8 9.2 L 12.7 9.3 L 12.5 9.3 L 12.4 9.4 L 12.3 9.4 L 12.2 9.5 L 12.1 9.5 L 11.9 9.7 L 11.8 9.7 L 11.7 9.8 L 11.6 9.8 L 11.4 10 L 11.3 10 L 11.1 10.2 L 11 10.2 L 10.5 10.7 L 10.4 10.7 L 10.1 11 L 10.1 11.1 L 9.7 11.5 L 9.7 11.6 L 9.4 11.9 L 9.4 12 L 9.3 12.1 L 9.3 12.2 L 9.1 12.4 L 9.1 12.5 L 9 12.6 L 9 12.7 L 8.9 12.8 L 8.9 13 L 8.8 13.1 L 8.8 13.2 L 8.7 13.3 L 8.7 13.5 L 8.6 13.6 L 8.6 13.8 L 8.5 13.9 L 8.5 14.2 L 8.4 14.3 L 8.4 14.9 L 8.3 15 L 8.3 16.7 L 8.4 16.8 L 8.4 17.3 L 8.5 17.4 L 8.5 17.7 L 8.6 17.8 L 8.6 18.1 L 8.7 18.2 L 8.7 18.4 L 8.8 18.5 L 8.8 18.6 L 8.9 18.7 L 8.9 18.8 L 9 18.9 L 9 19 L 9.1 19.1 L 9.1 19.2 L 9.2 19.3 L 9.2 19.4 L 9.4 19.6 L 9.4 19.7 L 9.5 19.8 L 9.5 19.9 L 9.9 20.3 L 9.9 20.4 L 10.9 21.4 L 11 21.4 L 11.3 21.7 L 11.4 21.7 L 11.7 22 L 11.8 22 L 11.9 22.1 L 12 22.1 L 12.1 22.2 L 12.2 22.2 L 12.3 22.3 L 12.4 22.3 L 12.5 22.4 L 12.6 22.4 L 12.7 22.5 L 12.8 22.5 L 12.9 22.6 L 13.1 22.6 L 13.2 22.7 L 13.4 22.7 L 13.5 22.8 L 13.8 22.8 L 13.9 22.9 L 14.5 22.9 L 14.5 8.9 Z" fill="#FFFFFF"/>
  <path d="M 20.5 20.5 L 20.4 20.6 L 20.3 20.6 L 19.7 21.2 L 19.6 21.2 L 19.3 21.5 L 19.2 21.5 L 19 21.7 L 18.9 21.7 L 18.8 21.8 L 18.7 21.8 L 18.6 21.9 L 18.5 21.9 L 18.4 22 L 18.3 22 L 18.2 22.1 L 18.1 22.1 L 18 22.2 L 17.8 22.2 L 17.7 22.3 L 17.5 22.3 L 17.4 22.4 L 17.2 22.4 L 17.1 22.5 L 16.8 22.5 L 16.7 22.6 L 14.5 22.6 L 14.5 27.3 L 14.9 27.3 L 15 27.4 L 15.4 27.4 L 15.5 27.3 L 16.5 27.3 L 16.6 27.2 L 17.4 27.2 L 17.5 27.1 L 17.8 27.1 L 17.9 27 L 18.2 27 L 18.3 26.9 L 18.5 26.9 L 18.6 26.8 L 18.8 26.8 L 18.9 26.7 L 19.1 26.7 L 19.2 26.6 L 19.3 26.6 L 19.4 26.5 L 19.5 26.5 L 19.6 26.4 L 19.7 26.4 L 19.8 26.3 L 19.9 26.3 L 20 26.2 L 20.1 26.2 L 20.3 26 L 20.4 26 L 20.5 25.9 L 20.6 25.9 L 20.8 25.7 L 20.9 25.7 L 21 25.6 L 21.1 25.6 L 21.3 25.4 L 21.4 25.4 L 21.6 25.2 L 21.7 25.2 L 22 24.9 L 22.1 24.9 L 23.2 23.8 L 23.3 23.8 L 23.3 23.6 L 23.2 23.6 L 23 23.4 L 23 23.3 L 21.6 21.9 L 21.5 21.9 L 21.2 21.6 L 21.2 21.5 Z" fill="#FFFFFF"/>
</svg>

