<svg xmlns="http://www.w3.org/2000/svg" width="313" height="313" viewBox="0 0 313 313" fill="none">
  <rect width="313" height="313" fill="#3B22FF"/>
  <path d="M 142 39 L 142 85 L 162 85 L 163 86 L 167 86 L 168 87 L 170 87 L 171 88 L 173 88 L 174 89 L 175 89 L 176 90 L 178 90 L 179 91 L 180 91 L 181 92 L 182 92 L 183 93 L 184 93 L 185 94 L 186 94 L 188 96 L 189 96 L 192 99 L 193 99 L 195 101 L 196 101 L 199 104 L 200 104 L 231 73 L 231 72 L 228 69 L 227 69 L 222 64 L 221 64 L 218 61 L 217 61 L 215 59 L 214 59 L 212 57 L 211 57 L 210 56 L 209 56 L 207 54 L 206 54 L 205 53 L 204 53 L 203 52 L 202 52 L 201 51 L 200 51 L 199 50 L 197 50 L 196 49 L 195 49 L 194 48 L 193 48 L 192 47 L 190 47 L 189 46 L 187 46 L 186 45 L 184 45 L 183 44 L 181 44 L 180 43 L 177 43 L 176 42 L 173 42 L 172 41 L 167 41 L 166 40 L 155 40 L 154 39 Z" fill="#FFFFFF"/>
  <path d="M 135 87 L 134 88 L 131 88 L 130 89 L 128 89 L 127 90 L 125 90 L 124 91 L 122 91 L 121 92 L 120 92 L 119 93 L 118 93 L 116 95 L 115 95 L 114 96 L 113 96 L 111 98 L 110 98 L 108 100 L 107 100 L 102 105 L 101 105 L 98 108 L 98 109 L 94 113 L 94 114 L 91 117 L 91 118 L 90 119 L 90 120 L 88 122 L 88 123 L 87 124 L 87 125 L 86 126 L 86 128 L 85 129 L 85 130 L 84 131 L 84 133 L 83 134 L 83 136 L 82 137 L 82 140 L 81 141 L 81 147 L 80 148 L 80 164 L 81 165 L 81 170 L 82 171 L 82 174 L 83 175 L 83 178 L 84 179 L 84 181 L 85 182 L 85 183 L 86 184 L 86 185 L 87 186 L 87 187 L 88 188 L 88 189 L 89 190 L 89 191 L 91 193 L 91 194 L 92 195 L 92 196 L 96 200 L 96 201 L 105 210 L 106 210 L 109 213 L 110 213 L 113 216 L 114 216 L 115 217 L 116 217 L 117 218 L 118 218 L 119 219 L 120 219 L 121 220 L 122 220 L 123 221 L 125 221 L 126 222 L 128 222 L 129 223 L 132 223 L 133 224 L 135 224 L 136 225 L 141 225 L 141 87 Z" fill="#FFFFFF"/>
  <path d="M 200 207 L 199 208 L 198 208 L 193 213 L 192 213 L 189 216 L 188 216 L 186 218 L 185 218 L 184 219 L 183 219 L 182 220 L 181 220 L 180 221 L 179 221 L 178 222 L 176 222 L 175 223 L 173 223 L 172 224 L 170 224 L 169 225 L 166 225 L 165 226 L 162 226 L 161 227 L 142 227 L 142 272 L 146 272 L 147 273 L 151 273 L 152 272 L 162 272 L 163 271 L 171 271 L 172 270 L 175 270 L 176 269 L 179 269 L 180 268 L 183 268 L 184 267 L 186 267 L 187 266 L 189 266 L 190 265 L 191 265 L 192 264 L 194 264 L 195 263 L 196 263 L 197 262 L 198 262 L 199 261 L 200 261 L 201 260 L 203 260 L 205 258 L 206 258 L 207 257 L 208 257 L 210 255 L 211 255 L 212 254 L 213 254 L 215 252 L 216 252 L 218 250 L 219 250 L 222 247 L 223 247 L 230 240 L 231 240 L 231 238 L 230 238 L 228 236 L 228 235 L 215 222 L 214 222 L 211 219 L 211 218 Z" fill="#FFFFFF"/>
</svg>

