<svg xmlns="http://www.w3.org/2000/svg" xmlns:xlink="http://www.w3.org/1999/xlink" width="100" zoomAndPan="magnify" viewBox="0 0 75 37.5" height="50" preserveAspectRatio="xMidYMid meet" version="1.0"><defs><g/><clipPath id="f607d2fc96"><path d="M 2 0.183594 L 14 0.183594 L 14 14 L 2 14 Z M 2 0.183594 " clip-rule="nonzero"/></clipPath><clipPath id="a90343bdd3"><path d="M 14 0.183594 L 17 0.183594 L 17 14 L 14 14 Z M 14 0.183594 " clip-rule="nonzero"/></clipPath><clipPath id="a05f7734dc"><rect x="0" width="51" y="0" height="19"/></clipPath></defs><g transform="matrix(1, 0, 0, 1, 20, 10)"><g clip-path="url(#a05f7734dc)"><g clip-path="url(#f607d2fc96)"><g fill="#FFFFFF" fill-opacity="1"><g transform="translate(1.230012, 13.379709)"><g><path d="M 7.0625 0.171875 C 5.9375 0.171875 4.898438 -0.09375 3.953125 -0.625 C 3.015625 -1.164062 2.269531 -1.921875 1.71875 -2.890625 C 1.164062 -3.859375 0.890625 -4.960938 0.890625 -6.203125 C 0.890625 -7.441406 1.164062 -8.546875 1.71875 -9.515625 C 2.269531 -10.492188 3.015625 -11.25 3.953125 -11.78125 C 4.898438 -12.320312 5.9375 -12.59375 7.0625 -12.59375 C 8.519531 -12.59375 9.738281 -12.203125 10.71875 -11.421875 C 11.707031 -10.640625 12.332031 -9.601562 12.59375 -8.3125 L 10.890625 -8.3125 C 10.640625 -9.164062 10.175781 -9.832031 9.5 -10.3125 C 8.832031 -10.789062 8.015625 -11.03125 7.046875 -11.03125 C 6.148438 -11.03125 5.367188 -10.820312 4.703125 -10.40625 C 4.035156 -10 3.519531 -9.425781 3.15625 -8.6875 C 2.800781 -7.957031 2.625 -7.128906 2.625 -6.203125 C 2.625 -5.285156 2.800781 -4.457031 3.15625 -3.71875 C 3.519531 -2.988281 4.035156 -2.414062 4.703125 -2 C 5.367188 -1.59375 6.148438 -1.390625 7.046875 -1.390625 C 8.015625 -1.390625 8.832031 -1.625 9.5 -2.09375 C 10.175781 -2.570312 10.640625 -3.238281 10.890625 -4.09375 L 12.59375 -4.09375 C 12.414062 -3.238281 12.078125 -2.488281 11.578125 -1.84375 C 11.078125 -1.207031 10.441406 -0.710938 9.671875 -0.359375 C 8.898438 -0.00390625 8.03125 0.171875 7.0625 0.171875 Z M 7.0625 0.171875 "/></g></g></g></g><g clip-path="url(#a90343bdd3)"><g fill="#FFFFFF" fill-opacity="1"><g transform="translate(13.799358, 13.379709)"><g><path d="M 1.171875 -12.953125 L 2.734375 -12.953125 L 2.734375 0 L 1.171875 0 Z M 1.171875 -12.953125 "/></g></g></g></g><g fill="#FFFFFF" fill-opacity="1"><g transform="translate(16.795018, 13.379709)"><g><path d="M 3.5625 0.171875 C 2.726562 0.171875 2.050781 -0.0546875 1.53125 -0.515625 C 1.007812 -0.984375 0.75 -1.609375 0.75 -2.390625 C 0.75 -3.222656 1.03125 -3.875 1.59375 -4.34375 C 2.164062 -4.8125 2.878906 -5.085938 3.734375 -5.171875 L 6.515625 -5.46875 L 6.515625 -6.0625 C 6.515625 -6.570312 6.332031 -6.957031 5.96875 -7.21875 C 5.601562 -7.488281 5.128906 -7.625 4.546875 -7.625 C 4.046875 -7.625 3.625 -7.503906 3.28125 -7.265625 C 2.945312 -7.035156 2.722656 -6.675781 2.609375 -6.1875 L 1.140625 -6.1875 C 1.265625 -7.125 1.660156 -7.832031 2.328125 -8.3125 C 2.992188 -8.800781 3.765625 -9.046875 4.640625 -9.046875 C 5.679688 -9.046875 6.507812 -8.785156 7.125 -8.265625 C 7.75 -7.753906 8.0625 -7.082031 8.0625 -6.25 L 8.0625 -2.09375 C 8.0625 -1.800781 8.125 -1.570312 8.25 -1.40625 C 8.382812 -1.25 8.582031 -1.171875 8.84375 -1.171875 C 9 -1.171875 9.15625 -1.191406 9.3125 -1.234375 L 9.3125 -0.078125 C 8.957031 0.046875 8.625 0.109375 8.3125 0.109375 C 7.351562 0.109375 6.769531 -0.351562 6.5625 -1.28125 C 6.21875 -0.882812 5.773438 -0.539062 5.234375 -0.25 C 4.691406 0.03125 4.132812 0.171875 3.5625 0.171875 Z M 3.734375 -1.234375 C 4.660156 -1.234375 5.585938 -1.695312 6.515625 -2.625 L 6.515625 -4.21875 L 3.84375 -3.921875 C 3.351562 -3.859375 2.972656 -3.691406 2.703125 -3.421875 C 2.441406 -3.160156 2.3125 -2.84375 2.3125 -2.46875 C 2.3125 -2.0625 2.441406 -1.753906 2.703125 -1.546875 C 2.972656 -1.335938 3.316406 -1.234375 3.734375 -1.234375 Z M 3.734375 -1.234375 "/></g></g></g><g fill="#FFFFFF" fill-opacity="1"><g transform="translate(25.72991, 13.379709)"><g><path d="M 1.171875 -8.859375 L 2.734375 -8.859375 L 2.734375 -7.828125 C 3.484375 -8.640625 4.378906 -9.046875 5.421875 -9.046875 C 5.984375 -9.046875 6.4375 -8.941406 6.78125 -8.734375 C 7.132812 -8.523438 7.421875 -8.203125 7.640625 -7.765625 C 8.566406 -8.617188 9.550781 -9.046875 10.59375 -9.046875 C 11.46875 -9.046875 12.117188 -8.828125 12.546875 -8.390625 C 12.972656 -7.960938 13.1875 -7.382812 13.1875 -6.65625 L 13.1875 0 L 11.640625 0 L 11.640625 -6.1875 C 11.640625 -6.644531 11.515625 -7.003906 11.265625 -7.265625 C 11.023438 -7.523438 10.671875 -7.65625 10.203125 -7.65625 C 9.304688 -7.65625 8.5625 -7.238281 7.96875 -6.40625 L 7.96875 0 L 6.40625 0 L 6.40625 -6.125 C 6.40625 -7.144531 5.929688 -7.65625 4.984375 -7.65625 C 4.578125 -7.65625 4.175781 -7.519531 3.78125 -7.25 C 3.394531 -6.976562 3.046875 -6.625 2.734375 -6.1875 L 2.734375 0 L 1.171875 0 Z M 1.171875 -8.859375 "/></g></g></g><g fill="#FFFFFF" fill-opacity="1"><g transform="translate(39.114788, 13.379709)"><g><path d="M 5.265625 0.171875 C 4.378906 0.171875 3.585938 -0.0234375 2.890625 -0.421875 C 2.203125 -0.816406 1.664062 -1.363281 1.28125 -2.0625 C 0.894531 -2.769531 0.703125 -3.5625 0.703125 -4.4375 C 0.703125 -5.3125 0.894531 -6.097656 1.28125 -6.796875 C 1.664062 -7.503906 2.203125 -8.054688 2.890625 -8.453125 C 3.585938 -8.847656 4.378906 -9.046875 5.265625 -9.046875 C 6.148438 -9.046875 6.9375 -8.847656 7.625 -8.453125 C 8.320312 -8.054688 8.863281 -7.503906 9.25 -6.796875 C 9.632812 -6.097656 9.828125 -5.3125 9.828125 -4.4375 C 9.828125 -3.5625 9.632812 -2.769531 9.25 -2.0625 C 8.863281 -1.363281 8.320312 -0.816406 7.625 -0.421875 C 6.9375 -0.0234375 6.148438 0.171875 5.265625 0.171875 Z M 5.265625 -1.234375 C 6.140625 -1.234375 6.859375 -1.507812 7.421875 -2.0625 C 7.984375 -2.625 8.265625 -3.414062 8.265625 -4.4375 C 8.265625 -5.445312 7.984375 -6.226562 7.421875 -6.78125 C 6.859375 -7.34375 6.140625 -7.625 5.265625 -7.625 C 4.390625 -7.625 3.671875 -7.34375 3.109375 -6.78125 C 2.546875 -6.226562 2.265625 -5.445312 2.265625 -4.4375 C 2.265625 -3.414062 2.546875 -2.625 3.109375 -2.0625 C 3.671875 -1.507812 4.390625 -1.234375 5.265625 -1.234375 Z M 5.265625 -1.234375 "/></g></g></g></g></g><path stroke-linecap="butt" transform="matrix(0.0505477, 0, 0, 0.0505477, -2.551924, 2.368422)" fill-opacity="1" fill="#FFFFFF" fill-rule="nonzero" stroke-linejoin="miter" d="M 288.271457 485.284626 C 288.271457 485.284626 284.021139 484.898233 284.021139 484.898233 C 284.021139 484.898233 284.021139 448.963726 284.021139 448.963726 C 284.021139 448.963726 284.021139 413.029219 284.021139 413.029219 C 284.021139 413.029219 281.084555 413.029219 281.084555 413.029219 C 276.293288 413.029219 259.755687 408.31523 251.796 404.68314 C 240.204224 399.350923 230.312574 392.395857 220.498204 382.504207 C 210.529276 372.53528 203.728767 362.952744 198.473828 351.670082 C 186.495659 325.781781 185.41376 294.252149 195.459966 267.436506 C 205.506173 240.698142 227.066877 218.132817 253.34157 206.772876 C 262.305878 202.90895 276.216009 199.045025 281.239112 199.045025 C 281.239112 199.045025 284.021139 198.967746 284.021139 198.967746 C 284.021139 198.967746 284.021139 163.110518 284.021139 163.110518 C 284.021139 163.110518 284.021139 127.176011 284.021139 127.176011 C 284.021139 127.176011 289.739749 126.557783 289.739749 126.557783 C 297.313043 125.707719 319.955646 127.562403 332.474765 130.112594 C 362.304269 136.140318 391.051875 150.359564 414.467264 170.683812 C 418.79486 174.39318 422.504229 177.947992 422.658786 178.488941 C 422.890621 179.029891 411.762516 190.698946 398.084219 204.454521 C 398.084219 204.454521 373.123261 229.338201 373.123261 229.338201 C 373.123261 229.338201 367.791044 224.856047 367.791044 224.856047 C 356.353824 215.118955 343.989263 208.086611 331.006473 203.681736 C 318.951025 199.663253 312.305073 198.658632 298.008549 198.581354 C 298.008549 198.581354 284.48481 198.504075 284.48481 198.504075 C 284.48481 198.504075 284.48481 305.998483 284.48481 305.998483 C 284.48481 305.998483 284.48481 413.49289 284.48481 413.49289 C 284.48481 413.49289 293.990067 413.802004 293.990067 413.802004 C 310.682225 414.342954 329.924574 410.092635 344.452934 402.751177 C 351.948949 399.041809 357.513002 395.255162 366.322752 388.145539 C 366.322752 388.145539 373.123261 382.658764 373.123261 382.658764 C 373.123261 382.658764 398.316055 407.928837 398.316055 407.928837 C 398.316055 407.928837 423.508849 433.121631 423.508849 433.121631 C 423.508849 433.121631 418.022075 438.222013 418.022075 438.222013 C 394.761244 459.550882 363.386169 475.624812 332.397486 481.884371 C 323.665014 483.661777 298.085828 486.289246 293.990067 485.825575 C 293.140003 485.748297 290.589812 485.516461 288.271457 485.284626 " stroke="#000000" stroke-width="1" stroke-opacity="1" stroke-miterlimit="4"/></svg>
