<svg xmlns="http://www.w3.org/2000/svg" width="120" height="40" viewBox="0 0 120 40" fill="none">
  <!-- Icon - Black background for light mode -->
  <rect x="0" y="0" width="40" height="40" rx="8" fill="#000000"/>
  <path d="M 18.2 5 L 18.2 10.9 L 20.8 10.9 L 20.9 11 L 21.4 11 L 21.5 11.1 L 21.8 11.1 L 21.9 11.2 L 22.2 11.2 L 22.3 11.3 L 22.4 11.3 L 22.5 11.4 L 22.8 11.4 L 22.9 11.5 L 23 11.5 L 23.1 11.6 L 23.2 11.6 L 23.3 11.7 L 23.4 11.7 L 23.5 11.8 L 23.6 11.8 L 23.9 12.1 L 24 12.1 L 24.4 12.5 L 24.5 12.5 L 24.8 12.8 L 24.9 12.8 L 29.6 8.1 L 29.6 8 L 29.2 7.6 L 29.1 7.6 L 28.4 6.9 L 28.3 6.9 L 27.9 6.5 L 27.8 6.5 L 27.5 6.2 L 27.4 6.2 L 27.1 5.9 L 27 5.9 L 26.9 5.8 L 26.8 5.8 L 26.5 5.5 L 26.4 5.5 L 26.3 5.4 L 26.2 5.4 L 26.1 5.3 L 26 5.3 L 25.9 5.2 L 25.7 5.2 L 25.6 5.1 L 25.5 5.1 L 25.4 5 L 25.3 5 L 25.2 4.9 L 25 4.9 L 24.9 4.8 L 24.6 4.8 L 24.5 4.7 L 24.2 4.7 L 24.1 4.6 L 23.5 4.6 L 23.4 4.5 L 22 4.5 L 21.9 4.4 Z" fill="#FFFFFF"/>
  <path d="M 17.3 11.1 L 17.2 11.2 L 16.8 11.2 L 16.7 11.3 L 16.4 11.3 L 16.3 11.4 L 16 11.4 L 15.9 11.5 L 15.6 11.5 L 15.5 11.6 L 15.4 11.6 L 15.3 11.7 L 15.2 11.7 L 14.9 12 L 14.8 12 L 14.7 12.1 L 14.6 12.1 L 14.3 12.4 L 14.2 12.4 L 13.9 12.7 L 13.8 12.7 L 13.1 13.4 L 13 13.4 L 12.6 13.8 L 12.6 13.9 L 12.1 14.4 L 12.1 14.5 L 11.7 14.9 L 11.7 15 L 11.6 15.1 L 11.6 15.2 L 11.3 15.5 L 11.3 15.6 L 11.2 15.7 L 11.2 15.8 L 11.1 15.9 L 11.1 16.2 L 11 16.3 L 11 16.4 L 10.9 16.5 L 10.9 16.8 L 10.8 16.9 L 10.8 17.2 L 10.7 17.3 L 10.7 17.7 L 10.6 17.8 L 10.6 18.6 L 10.5 18.7 L 10.5 20.8 L 10.6 20.9 L 10.6 21.5 L 10.7 21.6 L 10.7 22 L 10.8 22.1 L 10.8 22.5 L 10.9 22.6 L 10.9 22.8 L 11 22.9 L 11 23 L 11.1 23.1 L 11.1 23.2 L 11.2 23.3 L 11.2 23.4 L 11.3 23.5 L 11.3 23.6 L 11.4 23.7 L 11.4 23.8 L 11.7 24.1 L 11.7 24.2 L 11.8 24.3 L 11.8 24.4 L 12.3 24.9 L 12.3 25 L 13.5 26.2 L 13.6 26.2 L 14 26.6 L 14.1 26.6 L 14.5 27 L 14.6 27 L 14.7 27.1 L 14.8 27.1 L 14.9 27.2 L 15 27.2 L 15.1 27.3 L 15.2 27.3 L 15.3 27.4 L 15.4 27.4 L 15.5 27.5 L 15.7 27.5 L 15.8 27.6 L 16 27.6 L 16.1 27.7 L 16.5 27.7 L 16.6 27.8 L 17 27.8 L 17.1 27.9 L 18.1 27.9 L 18.1 11.1 Z" fill="#FFFFFF"/>
  <path d="M 25.6 25.6 L 25.5 25.7 L 25.4 25.7 L 24.7 26.4 L 24.6 26.4 L 24.2 26.8 L 24.1 26.8 L 23.8 27.1 L 23.7 27.1 L 23.6 27.2 L 23.5 27.2 L 23.4 27.3 L 23.3 27.3 L 23.2 27.4 L 23.1 27.4 L 23 27.5 L 22.8 27.5 L 22.7 27.6 L 22.5 27.6 L 22.4 27.7 L 22.2 27.7 L 22.1 27.8 L 21.8 27.8 L 21.7 27.9 L 21.4 27.9 L 21.3 28 L 18.2 28 L 18.2 33.8 L 18.7 33.8 L 18.8 33.9 L 19.3 33.9 L 19.4 33.8 L 20.7 33.8 L 20.8 33.7 L 21.8 33.7 L 21.9 33.6 L 22.3 33.6 L 22.4 33.5 L 22.8 33.5 L 22.9 33.4 L 23.2 33.4 L 23.3 33.3 L 23.6 33.3 L 23.7 33.2 L 23.9 33.2 L 24 33.1 L 24.2 33.1 L 24.3 33 L 24.4 33 L 24.5 32.9 L 24.7 32.9 L 24.8 32.8 L 24.9 32.8 L 25 32.7 L 25.1 32.7 L 25.2 32.6 L 25.3 32.6 L 25.4 32.5 L 25.6 32.5 L 25.9 32.2 L 26 32.2 L 26.1 32.1 L 26.2 32.1 L 26.5 31.8 L 26.6 31.8 L 26.7 31.7 L 26.8 31.7 L 27.1 31.4 L 27.2 31.4 L 27.5 31.1 L 27.6 31.1 L 28 30.7 L 28.1 30.7 L 29.5 29.3 L 29.6 29.3 L 29.6 29 L 29.5 29 L 29.2 28.7 L 29.2 28.6 L 27.5 26.9 L 27.4 26.9 L 27 26.5 L 27 26.4 Z" fill="#FFFFFF"/>
  
  <!-- Text "Clamo" - Black for light mode -->
  <text x="48" y="28" font-family="system-ui, -apple-system, sans-serif" font-size="22" font-weight="600" fill="#000000">Clamo</text>
</svg>
